# xmcd CD database file
#
# Track frame offsets:
#	150
#	20225
#	43630
#
# Disc length: 846 seconds
#
# Revision: 0
# Processed by: cddbd v1.5.1PL2 Copyright (c) Steve Scherf et al.
# Submitted via: CDex 1.51
#
DISCID=21034c03
DTITLE=工藤静香 - わたしはナイフ
DYEAR=1993
DGENRE=JPop
TTITLE0=わたしはナイフ
TTITLE1=終幕
TTITLE2=わたしはナイフ　オリジナルカラオケ
EXTD=YEAR: 1993
EXTT0=
EXTT1=
EXTT2=
PLAYORDER=
